# xmcd
#
# Track frame offsets:
#	150
#	15972
#	27516
#	43172
#
# Disc length: 691 seconds
#
# Revision: 1
# Processed by: cddbd v1.5.1PL2 Copyright (c) Steve Scherf et al.
# Submitted via: EasyCDDAExtractor 8.2.3.1
#
DISCID=2702b104
DTITLE=Waltari - Back To Persepolis E.P.
DYEAR=1900
DGENRE=CrossoverMetal
TTITLE0=Guardian Angel
TTITLE1=Living Then Living Now
TTITLE2=New Church
TTITLE3=Dad Found The Hand In The Hay Bale
EXTD=
EXTT0=
EXTT1=
EXTT2=
EXTT3=
PLAYORDER=
